<?xml version="1.0" standalone="no"?>
<!DOCTYPE svg PUBLIC "-//W3C//DTD SVG 20010904//EN"
 "http://www.w3.org/TR/2001/REC-SVG-20010904/DTD/svg10.dtd">
<svg version="1.0" xmlns="http://www.w3.org/2000/svg"
 width="1521.000000pt" height="775.000000pt" viewBox="0 0 1521.000000 775.000000"
 preserveAspectRatio="xMidYMid meet">

<g transform="translate(0.000000,775.000000) scale(0.100000,-0.100000)"
fill="#000000" stroke="none">
<path d="M12515 6574 c-86 -44 -171 -157 -280 -374 -122 -241 -258 -447 -419
-632 l-76 -88 0 -75 0 -76 -34 26 -33 25 -65 -69 c-116 -123 -161 -204 -196
-357 -19 -82 -41 -305 -29 -294 3 3 15 61 27 130 27 159 39 207 50 191 4 -8
10 9 14 42 5 40 18 73 45 114 40 62 81 104 68 71 -3 -10 -16 -74 -28 -143 -12
-69 -26 -125 -31 -125 -5 0 -6 -10 -3 -22 5 -18 4 -20 -4 -8 -6 8 -11 35 -12
60 -1 40 -2 42 -9 17 -16 -53 -23 -154 -11 -173 6 -11 11 -13 11 -6 0 6 8 12
18 12 9 0 13 -3 7 -8 -6 -4 -30 -34 -54 -67 -25 -33 -80 -104 -123 -157 -79
-98 -97 -128 -55 -92 32 29 78 56 84 51 3 -3 -14 -19 -38 -36 -39 -28 -48 -33
-65 -30 -3 1 -19 -11 -34 -26 l-29 -28 -81 13 c-95 15 -208 8 -287 -17 l-53
-17 0 -56 0 -56 -52 -34 c-67 -45 -89 -83 -89 -155 0 -57 19 -102 61 -140 11
-10 20 -22 20 -27 0 -5 -31 -42 -70 -83 -38 -40 -71 -84 -74 -97 -14 -69 -15
-94 -5 -130 9 -33 17 -42 57 -60 219 -95 458 -129 653 -92 98 18 217 63 274
102 47 32 54 64 35 151 -11 47 -21 63 -79 120 -100 98 -97 91 -52 139 29 31
41 53 46 86 13 84 -20 137 -108 176 l-47 21 0 59 c0 64 -13 80 -62 80 -19 0
-13 9 41 64 l63 63 86 1 c174 2 323 62 465 187 84 74 135 125 125 125 -3 0
-45 -18 -92 -40 -100 -46 -177 -70 -220 -70 l-31 0 30 28 c17 16 62 42 100 57
224 92 298 173 359 395 19 70 72 213 120 324 47 110 86 202 86 204 0 3 -23 2
-51 -2 -61 -8 -58 2 9 33 l49 23 41 127 c133 407 162 594 102 643 -27 22 -27
22 -65 2z m51 -69 c12 -68 -10 -177 -92 -441 -33 -107 -35 -112 -66 -119 -18
-5 -38 -8 -44 -8 -6 0 -11 -6 -11 -13 0 -17 0 -17 43 1 33 13 35 13 32 -3 -2
-10 -20 -22 -48 -30 -63 -19 -124 -46 -113 -49 6 -2 41 8 78 22 37 14 69 25
71 25 1 0 -1 -12 -7 -27 -7 -22 -31 -39 -102 -75 -50 -27 -103 -56 -116 -67
l-24 -18 92 -7 c50 -4 91 -9 91 -12 0 -2 -4 -12 -9 -22 -6 -9 -24 -54 -42 -99
-28 -69 -39 -87 -81 -118 -26 -21 -51 -42 -54 -47 -8 -13 35 9 59 30 23 20 22
0 -1 -21 -10 -9 -43 -30 -73 -47 -65 -36 -49 -40 20 -5 l49 24 -15 -47 c-7
-26 -23 -81 -34 -122 -32 -117 -73 -186 -144 -238 -73 -55 -201 -116 -223
-107 -9 3 -13 3 -9 -1 8 -8 -62 -56 -147 -101 -76 -40 -82 -40 -55 -3 15 20
40 35 73 45 55 17 129 54 108 55 -7 0 -39 -11 -72 -25 -33 -14 -62 -25 -64
-25 -3 0 26 48 64 106 38 59 71 111 72 115 2 4 46 29 98 53 52 25 83 43 68 40
-50 -11 -30 4 43 31 82 32 87 42 8 19 -71 -21 -171 -72 -164 -84 3 -5 -4 -14
-15 -20 -11 -6 -20 -8 -20 -4 0 3 -37 -43 -83 -102 -174 -229 -289 -370 -314
-382 -34 -18 -29 -10 76 113 145 172 274 354 417 590 l78 130 1 95 c2 171 3
175 35 215 l30 38 1 -84 c0 -67 2 -79 10 -59 6 14 9 57 6 95 -4 65 -2 74 27
119 l31 49 3 -34 c2 -19 -1 -66 -6 -106 -6 -52 -5 -70 3 -65 6 4 44 30 85 58
41 28 90 59 108 68 19 10 31 20 28 23 -3 3 -33 -10 -68 -29 -35 -18 -75 -39
-90 -45 l-27 -12 5 47 c2 26 1 65 -3 87 l-7 40 -7 -40 -6 -40 -2 35 c-1 24 10
53 35 94 19 32 47 82 61 110 25 48 26 50 35 27 8 -24 4 -82 -10 -146 -6 -24
-8 -18 -12 35 l-5 65 -8 -80 c-5 -56 -17 -99 -37 -143 -36 -75 -38 -87 -7 -41
12 19 56 58 96 87 40 28 70 52 67 52 -9 0 -76 -36 -103 -56 -17 -12 -9 7 30
77 46 83 59 98 131 151 44 32 75 58 70 58 -13 0 -75 -38 -101 -63 -13 -11 -23
-17 -23 -14 0 17 90 184 106 198 20 16 74 98 74 112 0 5 -10 -3 -22 -19 -39
-53 -40 -50 -5 21 34 67 61 159 38 125 -9 -13 -11 -13 -11 3 0 10 8 17 20 17
14 0 21 -9 26 -35z m-77 -25 c-23 -46 -25 -72 -4 -44 21 28 18 12 -10 -52 -14
-31 -22 -61 -18 -67 3 -6 1 -7 -5 -3 -7 4 -12 3 -12 -1 0 -5 -7 -18 -15 -29
-14 -18 -15 -17 -10 11 l6 30 -16 -25 c-15 -24 -16 -23 -10 30 8 69 37 132 77
165 16 14 31 25 33 25 2 0 -5 -18 -16 -40z m-111 -149 c-6 -28 -15 -47 -18
-41 -8 12 -20 -71 -20 -132 0 -20 -3 -39 -7 -41 -5 -3 -7 18 -6 46 3 61 -1 54
-18 -28 l-12 -60 -14 50 c-13 44 -13 53 2 85 25 54 98 180 102 176 2 -1 -2
-26 -9 -55z m-108 -208 c0 -22 -2 -25 -10 -13 -13 20 -13 40 0 40 6 0 10 -12
10 -27z m-330 -577 c-16 -142 -28 -182 -30 -101 -4 113 -16 120 -15 10 0 -99
-2 -114 -24 -149 l-24 -39 -19 34 c-10 19 -16 25 -14 14 3 -11 8 -31 11 -45 3
-15 0 -33 -8 -45 -14 -18 -16 -15 -27 37 -9 39 -10 73 -3 114 l9 59 21 -60
c15 -42 22 -52 22 -34 1 14 -11 48 -25 77 l-26 52 67 76 c36 41 71 84 78 94 6
11 13 18 15 16 2 -2 -2 -52 -8 -110z m-252 -275 c15 -48 15 -74 2 -66 -7 4 -9
-3 -5 -22 5 -27 5 -27 -5 -4 -16 37 -19 22 -8 -39 16 -88 17 -89 44 -45 24 40
33 92 14 80 -5 -3 -10 -16 -10 -27 0 -27 -5 -21 -14 15 -4 19 -3 26 4 22 13
-8 13 -2 -4 69 -12 51 -12 56 1 44 8 -8 23 -41 34 -74 l19 -59 -5 50 c-5 44
-3 48 10 35 32 -32 22 -72 -40 -161 -108 -154 -167 -229 -176 -223 -8 5 -13
-9 -10 -28 0 -5 -4 -8 -10 -8 -6 0 -8 7 -5 15 23 60 67 266 73 340 4 50 10 65
36 93 17 17 34 32 37 32 4 0 12 -17 18 -39z m-32 -530 c-3 -4 -19 -14 -36 -21
-16 -7 -30 -16 -30 -21 0 -12 197 -11 239 1 87 25 -83 -74 -179 -104 -41 -13
-108 -27 -149 -31 l-75 -7 66 78 c61 73 93 95 166 113 2 1 1 -3 -2 -8z m-336
-265 c0 -2 -8 -10 -17 -17 -16 -13 -17 -12 -4 4 13 16 21 21 21 13z m-55 -65
c-6 -6 -30 -14 -54 -20 -50 -11 -43 3 9 17 47 14 56 14 45 3z m-155 -11 c0 -5
-5 -10 -11 -10 -5 0 -7 5 -4 10 3 6 8 10 11 10 2 0 4 -4 4 -10z m-83 -72 l143
3 0 -28 c0 -22 2 -25 10 -13 7 11 10 5 10 -25 1 -36 2 -38 14 -22 14 18 14 18
19 0 3 -10 5 8 6 40 0 31 5 57 10 57 4 0 6 -24 4 -52 -3 -39 -2 -49 6 -38 6 8
11 34 11 56 0 29 5 44 16 48 37 14 44 7 44 -46 0 -64 3 -68 58 -93 55 -24 92
-67 92 -107 0 -38 -31 -90 -65 -108 -45 -24 -32 -75 39 -148 34 -35 38 -44 26
-52 -21 -14 -24 -13 -51 17 l-24 26 25 -16 c40 -27 41 -20 4 21 -19 20 -37 47
-40 60 -5 18 -11 21 -28 16 -11 -4 -24 -12 -28 -18 -6 -8 -11 -6 -18 4 -8 13
-10 12 -10 -2 0 -10 -7 -18 -15 -18 -11 0 -15 -11 -15 -42 0 -55 -17 -38 -23
22 -3 43 -4 43 -5 -11 l-2 -55 -47 -17 -48 -16 50 5 c48 5 51 4 68 -26 23 -38
33 -34 13 5 -24 46 -7 49 31 6 19 -23 44 -46 56 -52 18 -9 17 -6 -6 15 -37 36
-61 75 -52 84 4 4 14 -3 22 -15 9 -13 19 -23 24 -23 5 0 2 11 -7 25 -24 36 -6
31 38 -12 23 -22 42 -34 46 -28 4 6 21 17 39 27 29 15 33 15 47 -1 14 -15 11
-19 -29 -44 -29 -18 -42 -33 -38 -43 3 -8 -1 -14 -8 -14 -8 0 -27 -7 -42 -15
-15 -8 -34 -12 -42 -8 -8 3 -15 0 -15 -6 0 -6 -5 -11 -11 -11 -5 0 -8 4 -5 8
3 5 -20 5 -52 -1 -31 -5 -127 -6 -212 -3 -152 5 -250 21 -359 60 -36 13 -41
14 -32 2 8 -10 10 -30 6 -61 -9 -58 -20 -50 -17 13 1 35 -1 42 -8 27 -5 -11
-9 -33 -9 -48 -2 -58 -21 -14 -21 47 0 70 10 88 85 157 23 21 50 54 61 74 13
24 23 33 34 29 79 -33 299 -56 349 -37 17 7 -18 14 -140 27 -90 9 -180 21
-200 27 -138 36 -162 206 -38 269 22 12 48 19 57 15 12 -4 8 -12 -21 -36 -20
-17 -37 -35 -37 -42 0 -6 13 1 28 16 40 38 43 34 16 -20 -13 -25 -24 -56 -23
-67 0 -14 5 -9 14 16 7 20 21 48 30 62 9 14 14 30 10 36 -3 5 1 10 9 10 19 0
20 -13 5 -41 -6 -11 -8 -25 -6 -32 3 -7 10 3 17 21 7 17 13 32 15 32 2 0 32
-7 67 -16 74 -19 185 -15 238 10 l35 16 -65 -5 c-88 -6 -235 9 -287 30 l-43
17 0 54 0 54 27 -17 c24 -16 47 -18 170 -15z m168 2 c3 -5 1 -10 -4 -10 -6 0
-11 5 -11 10 0 6 2 10 4 10 3 0 8 -4 11 -10z m22 -12 c-3 -8 -6 -5 -6 6 -1 11
2 17 5 13 3 -3 4 -12 1 -19z m157 -424 c4 -10 2 -13 -6 -8 -7 5 -9 0 -6 -14 4
-12 2 -22 -3 -22 -5 0 -9 4 -9 9 0 5 -3 17 -7 27 -4 12 -3 15 5 10 7 -4 12 -2
12 3 0 16 7 13 14 -5z m-41 -57 c-4 -6 -10 -1 -15 12 -4 13 -5 28 -1 34 4 6
10 1 15 -12 4 -13 5 -28 1 -34z m-31 18 c6 -27 0 -38 -13 -29 -12 7 -12 54 0
54 5 0 11 -11 13 -25z m107 -45 c30 -26 32 -30 16 -36 -18 -7 -33 6 -56 49
-14 25 1 20 40 -13z m149 -155 c0 -25 -2 -24 -9 10 -10 51 -10 92 1 50 4 -16
8 -43 8 -60z m-46 16 c2 -17 1 -28 -4 -25 -8 5 -12 54 -4 54 2 0 6 -13 8 -29z
m-786 9 c25 -10 26 -13 20 -56 -3 -29 -2 -43 4 -39 6 3 10 22 10 41 0 49 20
42 21 -8 l2 -43 10 38 c14 51 27 47 29 -10 l1 -48 4 43 c6 58 27 50 31 -11 4
-56 4 -56 -101 -21 -71 23 -78 28 -73 48 3 11 6 33 6 49 0 31 -1 31 36 17z
m761 -12 c-3 -8 -6 -5 -6 6 -1 11 2 17 5 13 3 -3 4 -12 1 -19z m-45 -60 c-9
-9 -12 -4 -11 23 0 32 1 33 11 11 8 -17 8 -26 0 -34z m-152 -8 c0 -22 -4 -40
-10 -40 -11 0 -14 63 -3 73 11 12 13 8 13 -33z m17 18 c-3 -8 -6 -5 -6 6 -1
11 2 17 5 13 3 -3 4 -12 1 -19z m70 -25 c-3 -10 -5 -2 -5 17 0 19 2 27 5 18 2
-10 2 -26 0 -35z m-474 -18 l4 -40 1 43 c2 30 6 42 17 42 11 0 15 -12 15 -50
l0 -49 -32 6 c-18 3 -34 7 -36 8 -1 1 1 23 4 49 8 54 21 50 27 -9z m355 -7
c-4 -20 -6 -18 -15 12 l-11 35 -1 -32 c-1 -18 -1 -36 -1 -40 0 -6 35 -9 43 -3
9 7 67 8 67 1 0 -10 -99 -31 -146 -31 -31 0 -33 2 -37 43 l-4 42 -1 -47 c-3
-65 -22 -61 -24 5 l-1 52 -6 -49 c-9 -72 -31 -73 -31 -2 l0 56 53 1 c28 1 66
4 82 8 32 7 40 -6 33 -51z m79 15 c-3 -10 -5 -2 -5 17 0 19 2 27 5 18 2 -10 2
-26 0 -35z m180 25 c-3 -8 -6 -5 -6 6 -1 11 2 17 5 13 3 -3 4 -12 1 -19z
m-100 -10 c-3 -8 -6 -5 -6 6 -1 11 2 17 5 13 3 -3 4 -12 1 -19z m-425 -38 c-2
-33 0 -41 7 -30 6 8 11 29 11 46 0 29 2 32 33 30 31 -1 32 -3 35 -50 l3 -48
-60 4 c-33 2 -63 6 -65 9 -3 2 -2 24 1 47 4 32 10 42 22 40 12 -2 15 -14 13
-48z m488 36 c0 -7 -25 -23 -56 -35 -63 -24 -74 -25 -74 -10 0 5 3 8 8 6 5 -4
67 23 120 52 1 0 2 -5 2 -13z"/>
<path d="M12530 6340 c-6 -12 -37 -51 -69 -88 -79 -92 -85 -110 -12 -34 33 34
70 80 81 102 20 40 20 58 0 20z"/>
<path d="M12398 6051 c-56 -36 -77 -64 -22 -31 52 32 89 60 77 60 -5 0 -30
-13 -55 -29z"/>
<path d="M12003 5620 c-14 -124 -17 -137 -26 -146 -4 -4 -7 -12 -7 -18 0 -6 5
-3 11 7 6 10 61 42 122 71 62 30 139 75 172 101 l60 48 -35 -6 c-19 -3 -51
-12 -70 -21 -35 -16 -35 -16 -5 -12 17 3 39 8 50 12 16 5 14 2 -5 -12 -30 -23
-263 -145 -267 -140 -2 2 1 26 7 53 6 28 10 77 8 109 -3 55 -4 52 -15 -46z"/>
<path d="M12258 5591 c-32 -26 -106 -73 -165 -105 -60 -32 -112 -63 -118 -68
-9 -9 91 37 180 84 58 30 143 95 155 118 14 26 15 26 -52 -29z"/>
<path d="M12083 5429 c-75 -38 -171 -108 -128 -93 20 7 20 7 1 -14 -11 -12
-17 -22 -13 -22 15 0 152 103 149 112 -2 6 4 8 13 4 9 -3 13 -2 10 4 -3 5 10
16 30 24 34 14 45 26 26 26 -5 0 -45 -18 -88 -41z m-83 -73 c0 -2 -7 -7 -16
-10 -8 -3 -12 -2 -9 4 6 10 25 14 25 6z"/>
<path d="M12030 5283 c-38 -6 -112 -34 -106 -41 3 -3 -3 -12 -14 -19 -11 -8
-18 -18 -15 -23 3 -5 -3 -13 -12 -19 -32 -19 -6 -11 86 24 49 19 98 35 108 35
10 0 25 5 33 10 35 22 -81 -5 -185 -44 -44 -17 50 38 103 60 55 23 55 26 2 17z"/>
<path d="M12130 5151 c0 -7 -26 -40 -57 -73 -32 -34 -48 -56 -36 -50 49 26
115 113 98 130 -3 3 -5 0 -5 -7z"/>
<path d="M12030 5079 c-57 -51 -135 -97 -228 -133 -39 -16 -71 -31 -69 -33 8
-7 151 48 200 77 53 30 83 55 126 103 35 38 23 33 -29 -14z"/>
<path d="M11827 4923 c-70 -25 -126 -48 -124 -50 7 -7 179 48 225 72 67 34 45
30 -101 -22z"/>
<path d="M11832 5485 c-1 -5 8 -48 19 -95 l19 -85 -5 62 c-4 50 -33 154 -33
118z"/>
<path d="M11623 5215 c0 -22 2 -30 4 -17 2 12 2 30 0 40 -3 9 -5 -1 -4 -23z"/>
<path d="M11589 5019 c-15 -57 -29 -115 -33 -129 -3 -14 5 -2 18 25 27 58 50
149 45 184 -3 13 -15 -20 -30 -80z"/>
<path d="M11730 4660 c-26 -17 -134 -50 -195 -60 l-60 -9 78 4 c61 3 91 10
134 31 30 15 56 32 59 36 7 10 2 10 -16 -2z"/>
<path d="M11520 4650 c-8 -5 -10 -10 -5 -11 6 0 1 -4 -10 -9 -15 -6 -7 -9 30
-9 28 0 64 6 80 14 l30 14 -40 -4 c-30 -4 -35 -3 -20 4 17 8 15 10 -15 10 -19
0 -42 -4 -50 -9z"/>
<path d="M11288 4344 c-5 -4 -8 -21 -8 -38 1 -26 2 -28 11 -13 11 19 8 63 -3
51z"/>
<path d="M11400 4157 c0 -23 -43 -30 -58 -9 -13 16 -13 16 -10 -3 2 -16 -3
-20 -29 -20 l-31 0 5 -46 5 -46 -48 -11 -49 -10 43 -1 c46 -1 52 -12 25 -45
-18 -21 -18 -21 4 -2 12 10 25 27 28 37 4 11 11 19 16 19 6 0 6 -7 -1 -19 -13
-26 -13 -28 8 -28 9 0 23 7 30 16 11 13 12 13 6 1 -3 -8 10 2 31 22 31 29 40
46 45 86 4 34 2 52 -7 61 -10 9 -13 9 -13 -2z m-3 -64 c-3 -10 -5 -4 -5 12 0
17 2 24 5 18 2 -7 2 -21 0 -30z m-88 -20 c-1 -34 -2 -35 -9 -13 -11 36 -11 50
0 50 6 0 10 -17 9 -37z m37 22 c4 -8 3 -23 -1 -32 -7 -17 -8 -16 -15 2 -5 11
-9 26 -9 33 -1 17 18 15 25 -3z m27 -15 c-7 -28 -13 -25 -13 6 0 14 4 23 9 20
5 -3 7 -15 4 -26z m-45 -75 c-6 -14 -13 -24 -14 -22 -6 6 9 47 17 47 5 0 3
-11 -3 -25z"/>
<path d="M10745 3815 c35 -29 121 -49 155 -37 21 8 18 10 -26 21 -27 7 -70 19
-96 27 -63 19 -68 17 -33 -11z"/>
<path d="M10708 3664 c-5 -4 -8 -23 -8 -43 1 -30 2 -33 11 -18 11 19 8 73 -3
61z"/>
<path d="M11193 3560 c0 -25 2 -35 4 -22 2 12 2 32 0 45 -2 12 -4 2 -4 -23z"/>
<path d="M11031 3555 c0 -35 1 -37 10 -17 6 15 5 30 -1 40 -7 13 -9 8 -9 -23z"/>
<path d="M3787 6136 c-41 -15 -175 -121 -336 -266 -239 -214 -580 -576 -825
-872 l-121 -147 -7 277 c-13 489 -31 630 -98 768 -57 116 -136 185 -253 219
-162 47 -386 -66 -473 -237 -47 -92 -46 -267 1 -314 30 -30 82 -32 117 -4 22
17 26 29 31 99 6 92 40 180 81 206 52 35 145 -19 168 -98 9 -32 12 -301 14
-1082 1 -1136 13 -1695 38 -1905 25 -201 35 -229 93 -251 88 -33 153 14 172
126 38 213 62 423 71 605 26 564 30 664 30 772 0 64 2 123 5 130 10 26 147 3
234 -38 62 -30 94 -55 176 -138 107 -108 161 -194 205 -326 31 -96 66 -319 85
-540 35 -426 55 -540 124 -708 114 -282 345 -502 596 -567 80 -21 251 -21 330
-1 139 37 283 136 354 242 91 138 113 341 51 481 -24 54 -92 128 -155 168
-135 87 -316 65 -410 -49 -45 -55 -58 -98 -45 -147 12 -44 47 -75 101 -89 45
-12 79 -6 135 26 71 41 136 27 169 -36 37 -72 6 -151 -81 -209 -69 -45 -116
-56 -193 -43 -160 27 -285 129 -370 303 -68 139 -102 280 -135 554 -36 300
-52 400 -86 536 -92 371 -280 643 -535 772 -65 33 -184 68 -253 76 l-55 6 98
125 c131 167 399 485 695 826 281 323 403 473 432 528 25 49 27 120 5 162 -28
53 -116 83 -180 60z"/>
<path d="M5489 6056 c-126 -45 -216 -200 -276 -476 -24 -108 -26 -138 -30
-482 -4 -258 -9 -370 -17 -376 -16 -13 -142 -62 -159 -62 -9 0 -17 14 -21 38
-11 59 -82 192 -135 252 -160 181 -430 239 -647 139 -53 -25 -222 -192 -301
-297 -89 -119 -150 -282 -160 -427 -25 -377 322 -650 725 -570 109 22 230 83
301 153 106 104 190 259 220 408 9 46 20 86 24 90 4 4 45 21 91 39 l84 31 6
-190 c19 -551 35 -763 61 -803 37 -56 142 -68 191 -22 44 41 48 79 46 474 -1
204 -5 389 -8 412 -6 39 -3 45 40 91 64 69 127 94 241 100 84 4 94 2 145 -25
38 -20 65 -43 87 -76 69 -103 84 -318 30 -430 -32 -64 -131 -162 -173 -170
-60 -11 -110 94 -86 178 18 61 -44 120 -99 95 -32 -15 -86 -94 -105 -156 -33
-104 5 -246 83 -315 79 -69 209 -107 306 -89 146 27 315 160 382 301 58 123
79 224 72 354 -7 136 -26 214 -83 331 -99 208 -288 317 -517 301 -101 -7 -194
-35 -271 -82 -32 -19 -60 -35 -61 -35 -1 0 -6 38 -10 85 l-7 85 42 47 c63 71
164 228 204 314 106 233 144 497 89 620 -55 123 -188 187 -304 145z m127 -222
c8 -18 14 -51 14 -73 0 -58 -34 -224 -65 -316 -28 -84 -93 -222 -109 -232 -11
-7 0 325 14 437 21 155 60 236 110 223 13 -3 28 -20 36 -39z m-1079 -1012 c51
-27 98 -82 118 -141 23 -69 22 -71 -32 -65 -162 19 -343 111 -343 174 0 22 30
49 65 58 42 12 145 -3 192 -26z m-286 -374 c30 -14 76 -33 104 -43 62 -20 207
-39 257 -32 21 3 40 2 42 -2 8 -13 -54 -128 -94 -174 -108 -122 -279 -135
-416 -31 -64 49 -87 97 -87 183 0 70 10 126 34 188 l9 25 48 -44 c27 -24 73
-55 103 -70z"/>
<path d="M6847 5090 c-55 -43 -151 -282 -194 -480 -28 -132 -25 -425 6 -540
34 -129 74 -203 150 -280 58 -59 75 -70 135 -89 115 -36 238 -23 350 36 78 41
211 182 281 297 l60 98 16 -54 c20 -69 72 -166 114 -215 18 -21 58 -53 89 -72
47 -28 70 -35 130 -39 63 -4 81 -1 127 20 78 36 148 95 220 187 l64 80 7 -37
c4 -20 14 -82 23 -137 25 -162 62 -210 160 -210 62 0 100 22 127 76 23 43 24
200 4 414 -8 83 -17 200 -21 260 -6 107 -5 112 23 170 35 72 120 169 173 196
79 40 161 13 197 -64 39 -81 45 -147 38 -387 -7 -243 0 -332 35 -424 41 -111
155 -202 285 -228 140 -28 315 52 418 192 73 99 206 374 206 426 0 35 -45 74
-85 74 -30 0 -40 -9 -113 -108 -129 -172 -265 -291 -334 -292 -30 0 -65 21
-79 49 -9 18 -15 99 -20 271 -7 278 -19 352 -77 465 -46 89 -137 182 -217 221
-51 24 -72 29 -140 29 -101 0 -179 -29 -277 -103 -38 -30 -71 -52 -72 -50 -2
2 -8 30 -15 63 -16 84 -44 110 -117 110 -48 0 -59 -4 -79 -27 -37 -43 -56
-172 -62 -423 l-6 -220 -71 -85 c-141 -170 -226 -248 -285 -263 -38 -9 -90 21
-121 70 -37 58 -67 173 -81 314 -15 139 -7 210 47 436 33 134 36 155 24 183
-36 87 -189 107 -230 29 -6 -11 -38 -104 -72 -207 -70 -218 -124 -344 -197
-466 -94 -155 -227 -272 -299 -264 -23 3 -30 11 -44 53 -34 103 -42 211 -41
535 1 178 -2 331 -8 352 -18 71 -97 101 -152 58z"/>
<path d="M11452 4850 c0 -30 4 -66 8 -80 11 -34 11 63 0 105 -6 25 -8 20 -8
-25z"/>
<path d="M11424 4765 c4 -16 12 -34 18 -40 7 -7 8 -1 4 20 -4 17 -12 35 -18
40 -7 7 -8 1 -4 -20z"/>
<path d="M5280 2470 l0 -292 183 4 c166 3 186 5 224 26 52 27 73 65 73 129 0
59 -29 111 -70 126 -35 13 -37 22 -10 37 49 26 66 129 31 186 -35 57 -76 69
-263 72 l-168 4 0 -292z m309 230 c53 -15 81 -47 81 -92 0 -22 -4 -47 -10 -57
-18 -35 -82 -51 -205 -51 l-115 0 0 105 0 105 108 0 c59 0 122 -4 141 -10z
m30 -260 c56 -16 81 -46 81 -100 0 -87 -50 -110 -237 -110 l-123 0 0 110 0
110 123 0 c67 0 137 -4 156 -10z"/>
<path d="M6190 2470 l0 -290 30 0 30 0 0 290 0 290 -30 0 -30 0 0 -290z"/>
<path d="M6730 2469 l0 -291 183 4 c161 3 187 5 221 24 52 27 77 62 83 115 5
56 -19 106 -69 138 l-37 23 30 25 c86 73 47 210 -69 243 -20 5 -106 10 -189
10 l-153 0 0 -291z m330 225 c40 -16 70 -54 70 -89 0 -32 -32 -77 -65 -91 -23
-9 -73 -14 -155 -14 l-120 0 0 98 c0 54 3 102 7 105 14 15 222 7 263 -9z m43
-264 c76 -37 72 -148 -5 -181 -23 -10 -75 -14 -168 -14 l-135 0 -3 94 c-1 52
0 101 3 109 7 19 266 13 308 -8z"/>
<path d="M7650 2470 l0 -290 190 0 190 0 0 25 0 25 -160 0 -160 0 0 265 0 265
-30 0 -30 0 0 -290z"/>
<path d="M8420 2470 l0 -290 30 0 30 0 0 290 0 290 -30 0 -30 0 0 -290z"/>
<path d="M9105 2747 c-59 -23 -93 -47 -128 -88 -91 -106 -90 -276 2 -381 59
-66 119 -92 224 -96 83 -4 93 -2 152 27 108 53 159 137 159 261 0 123 -51 207
-156 259 -54 27 -71 31 -142 30 -45 0 -94 -6 -111 -12z m222 -61 c131 -61 172
-242 82 -366 -56 -78 -200 -115 -292 -77 -193 81 -194 369 -2 453 51 22 153
17 212 -10z"/>
<path d="M9840 2735 l0 -25 105 0 105 0 0 -265 0 -265 30 0 30 0 0 265 0 265
100 0 100 0 0 25 0 25 -235 0 -235 0 0 -25z"/>
<path d="M10700 2470 l0 -290 205 0 205 0 0 25 0 25 -175 0 -175 0 0 110 0
110 150 0 150 0 0 25 0 25 -150 0 -150 0 0 105 0 105 170 0 170 0 0 25 0 25
-200 0 -200 0 0 -290z"/>
<path d="M11673 2744 c-53 -19 -128 -85 -156 -138 -32 -59 -32 -212 0 -272 24
-45 84 -103 135 -131 48 -26 228 -26 278 1 49 26 69 46 64 61 -10 25 -34 25
-70 0 -44 -30 -87 -39 -164 -33 -71 5 -128 40 -175 107 -28 40 -30 49 -30 131
0 82 2 91 30 131 17 24 50 57 74 74 40 28 49 30 131 30 83 0 91 -2 133 -32 45
-31 46 -31 63 -12 17 19 17 21 -11 44 -66 53 -209 72 -302 39z"/>
<path d="M12566 2728 c-7 -18 -28 -64 -46 -103 -154 -334 -200 -435 -200 -440
0 -4 14 -5 31 -3 28 3 33 10 63 78 l32 75 163 3 162 3 36 -81 c33 -73 39 -80
65 -80 15 0 28 3 28 8 0 4 -58 133 -128 287 -126 275 -129 280 -160 283 -27 3
-33 -1 -46 -30z m117 -190 l65 -143 -69 -3 c-38 -2 -100 -2 -138 0 l-68 3 65
143 c36 78 68 142 72 142 4 0 37 -64 73 -142z"/>
</g>
</svg>
